<mxfile host="app.diagrams.net" modified="2023-10-30T04:13:21.230Z" agent="Mozilla/5.0 (Windows NT 10.0; Win64; x64) AppleWebKit/537.36 (KHTML, like Gecko) Chrome/118.0.0.0 Safari/537.36 Edg/118.0.2088.69" etag="z_iRpVPbT55sKUO_Vgr4" version="22.0.8" type="device">
  <diagram name="Page-1" id="XB64EiZ7Dsrquv6QB79k">
    <mxGraphModel dx="1401" dy="315" grid="1" gridSize="10" guides="1" tooltips="1" connect="1" arrows="1" fold="1" page="1" pageScale="1" pageWidth="850" pageHeight="1100" math="0" shadow="0">
      <root>
        <mxCell id="0" />
        <mxCell id="1" parent="0" />
        <mxCell id="P1qTom8UIpOYgn3hr2Sn-2" value="Cliente" style="outlineConnect=0;dashed=0;verticalLabelPosition=bottom;verticalAlign=top;align=center;html=1;shape=mxgraph.aws3.management_console;fillColor=#F58534;gradientColor=none;" parent="1" vertex="1">
          <mxGeometry x="-268" y="690" width="63" height="63" as="geometry" />
        </mxCell>
        <mxCell id="P1qTom8UIpOYgn3hr2Sn-27" style="edgeStyle=orthogonalEdgeStyle;rounded=0;orthogonalLoop=1;jettySize=auto;html=1;entryX=0;entryY=0.5;entryDx=0;entryDy=0;exitX=1;exitY=0.5;exitDx=0;exitDy=0;exitPerimeter=0;" parent="1" source="P1qTom8UIpOYgn3hr2Sn-2" target="P1qTom8UIpOYgn3hr2Sn-54" edge="1">
          <mxGeometry relative="1" as="geometry">
            <mxPoint x="-51" y="721.5" as="sourcePoint" />
            <Array as="points">
              <mxPoint x="-130" y="722" />
              <mxPoint x="-130" y="658" />
            </Array>
          </mxGeometry>
        </mxCell>
        <mxCell id="P1qTom8UIpOYgn3hr2Sn-28" style="edgeStyle=orthogonalEdgeStyle;rounded=0;orthogonalLoop=1;jettySize=auto;html=1;entryX=0;entryY=0.5;entryDx=0;entryDy=0;exitX=1;exitY=0.5;exitDx=0;exitDy=0;exitPerimeter=0;" parent="1" source="P1qTom8UIpOYgn3hr2Sn-2" target="P1qTom8UIpOYgn3hr2Sn-55" edge="1">
          <mxGeometry relative="1" as="geometry">
            <mxPoint x="-280" y="840" as="sourcePoint" />
            <Array as="points">
              <mxPoint x="-130" y="722" />
              <mxPoint x="-130" y="968" />
            </Array>
          </mxGeometry>
        </mxCell>
        <mxCell id="P1qTom8UIpOYgn3hr2Sn-15" value="" style="outlineConnect=0;dashed=0;verticalLabelPosition=bottom;verticalAlign=top;align=center;html=1;shape=mxgraph.aws3.iam;fillColor=#759C3E;gradientColor=none;" parent="1" vertex="1">
          <mxGeometry x="60" y="483" width="30" height="52" as="geometry" />
        </mxCell>
        <mxCell id="P1qTom8UIpOYgn3hr2Sn-17" value="" style="outlineConnect=0;dashed=0;verticalLabelPosition=bottom;verticalAlign=top;align=center;html=1;shape=mxgraph.aws3.ec2;fillColor=#F58534;gradientColor=none;" parent="1" vertex="1">
          <mxGeometry x="98.89999999999998" y="848.5" width="50" height="60" as="geometry" />
        </mxCell>
        <mxCell id="P1qTom8UIpOYgn3hr2Sn-18" value="" style="outlineConnect=0;dashed=0;verticalLabelPosition=bottom;verticalAlign=top;align=center;html=1;shape=mxgraph.aws3.ec2;fillColor=#F58534;gradientColor=none;" parent="1" vertex="1">
          <mxGeometry x="99.27" y="475" width="50" height="60" as="geometry" />
        </mxCell>
        <mxCell id="P1qTom8UIpOYgn3hr2Sn-20" value="" style="outlineConnect=0;dashed=0;verticalLabelPosition=bottom;verticalAlign=top;align=center;html=1;shape=mxgraph.aws3.iam;fillColor=#759C3E;gradientColor=none;" parent="1" vertex="1">
          <mxGeometry x="59.629999999999995" y="856.5" width="30" height="52" as="geometry" />
        </mxCell>
        <mxCell id="P1qTom8UIpOYgn3hr2Sn-35" style="edgeStyle=orthogonalEdgeStyle;rounded=0;orthogonalLoop=1;jettySize=auto;html=1;entryX=1;entryY=0.5;entryDx=0;entryDy=0;" parent="1" source="P1qTom8UIpOYgn3hr2Sn-30" target="P1qTom8UIpOYgn3hr2Sn-54" edge="1">
          <mxGeometry relative="1" as="geometry">
            <Array as="points">
              <mxPoint x="420" y="720" />
              <mxPoint x="270" y="720" />
              <mxPoint x="270" y="657" />
            </Array>
          </mxGeometry>
        </mxCell>
        <mxCell id="mt1AI8Zr7TfMjR9NXUJJ-7" style="edgeStyle=orthogonalEdgeStyle;rounded=0;orthogonalLoop=1;jettySize=auto;html=1;entryX=1;entryY=0.25;entryDx=0;entryDy=0;" edge="1" parent="1" source="P1qTom8UIpOYgn3hr2Sn-30" target="P1qTom8UIpOYgn3hr2Sn-55">
          <mxGeometry relative="1" as="geometry">
            <Array as="points">
              <mxPoint x="420" y="720" />
              <mxPoint x="270" y="720" />
              <mxPoint x="270" y="939" />
            </Array>
          </mxGeometry>
        </mxCell>
        <mxCell id="P1qTom8UIpOYgn3hr2Sn-30" value="" style="swimlane;startSize=0;" parent="1" vertex="1">
          <mxGeometry x="370" y="540" width="100" height="130" as="geometry" />
        </mxCell>
        <mxCell id="P1qTom8UIpOYgn3hr2Sn-23" value="Bucket&amp;nbsp;&lt;br&gt;/&lt;br&gt;ImÃ¡genes&lt;br&gt;" style="outlineConnect=0;dashed=0;verticalLabelPosition=bottom;verticalAlign=top;align=center;html=1;shape=mxgraph.aws3.bucket;fillColor=#E05243;gradientColor=none;" parent="P1qTom8UIpOYgn3hr2Sn-30" vertex="1">
          <mxGeometry x="25" y="10" width="60" height="61.5" as="geometry" />
        </mxCell>
        <mxCell id="P1qTom8UIpOYgn3hr2Sn-32" value="" style="outlineConnect=0;dashed=0;verticalLabelPosition=bottom;verticalAlign=top;align=center;html=1;shape=mxgraph.aws3.s3;fillColor=#E05243;gradientColor=none;" parent="1" vertex="1">
          <mxGeometry x="406" y="486.5" width="39" height="45" as="geometry" />
        </mxCell>
        <mxCell id="P1qTom8UIpOYgn3hr2Sn-31" value="" style="outlineConnect=0;dashed=0;verticalLabelPosition=bottom;verticalAlign=top;align=center;html=1;shape=mxgraph.aws3.iam;fillColor=#759C3E;gradientColor=none;" parent="1" vertex="1">
          <mxGeometry x="370" y="483" width="30" height="52" as="geometry" />
        </mxCell>
        <mxCell id="P1qTom8UIpOYgn3hr2Sn-54" value="" style="swimlane;startSize=0;" parent="1" vertex="1">
          <mxGeometry x="30" y="535" width="159.27" height="245" as="geometry" />
        </mxCell>
        <mxCell id="P1qTom8UIpOYgn3hr2Sn-52" value="Node.js" style="outlineConnect=0;dashed=0;verticalLabelPosition=bottom;verticalAlign=top;align=center;html=1;shape=mxgraph.aws3.android;fillColor=#96BF3D;gradientColor=none;" parent="P1qTom8UIpOYgn3hr2Sn-54" vertex="1">
          <mxGeometry x="70" y="6.5" width="73.5" height="84" as="geometry" />
        </mxCell>
        <mxCell id="mt1AI8Zr7TfMjR9NXUJJ-4" value="" style="image;sketch=0;aspect=fixed;html=1;points=[];align=center;fontSize=12;image=img/lib/mscae/Docker.svg;" vertex="1" parent="P1qTom8UIpOYgn3hr2Sn-54">
          <mxGeometry x="10.000000000000004" y="6.5" width="50" height="41" as="geometry" />
        </mxCell>
        <mxCell id="mt1AI8Zr7TfMjR9NXUJJ-3" value="Angular" style="outlineConnect=0;dashed=0;verticalLabelPosition=bottom;verticalAlign=top;align=center;html=1;shape=mxgraph.aws3.android;fillColor=#205E00;gradientColor=none;" vertex="1" parent="P1qTom8UIpOYgn3hr2Sn-54">
          <mxGeometry x="70.00000000000001" y="125" width="73.5" height="84" as="geometry" />
        </mxCell>
        <mxCell id="mt1AI8Zr7TfMjR9NXUJJ-5" value="" style="image;sketch=0;aspect=fixed;html=1;points=[];align=center;fontSize=12;image=img/lib/mscae/Docker.svg;" vertex="1" parent="P1qTom8UIpOYgn3hr2Sn-54">
          <mxGeometry x="10" y="125" width="50" height="41" as="geometry" />
        </mxCell>
        <mxCell id="P1qTom8UIpOYgn3hr2Sn-55" value="" style="swimlane;startSize=0;" parent="1" vertex="1">
          <mxGeometry x="30" y="908.5" width="158.9" height="120" as="geometry" />
        </mxCell>
        <mxCell id="mt1AI8Zr7TfMjR9NXUJJ-6" value="" style="image;sketch=0;aspect=fixed;html=1;points=[];align=center;fontSize=12;image=img/lib/mscae/Docker.svg;" vertex="1" parent="P1qTom8UIpOYgn3hr2Sn-55">
          <mxGeometry x="10" y="13" width="50" height="41" as="geometry" />
        </mxCell>
        <mxCell id="mt1AI8Zr7TfMjR9NXUJJ-12" value="" style="outlineConnect=0;dashed=0;verticalLabelPosition=bottom;verticalAlign=top;align=center;html=1;shape=mxgraph.aws3.mysql_db_instance;fillColor=#2E73B8;gradientColor=none;" vertex="1" parent="P1qTom8UIpOYgn3hr2Sn-55">
          <mxGeometry x="70" y="27.75" width="60" height="64.5" as="geometry" />
        </mxCell>
        <mxCell id="mt1AI8Zr7TfMjR9NXUJJ-20" style="edgeStyle=orthogonalEdgeStyle;rounded=0;orthogonalLoop=1;jettySize=auto;html=1;endArrow=none;endFill=0;" edge="1" parent="1" source="mt1AI8Zr7TfMjR9NXUJJ-8">
          <mxGeometry relative="1" as="geometry">
            <mxPoint x="420" y="720" as="targetPoint" />
          </mxGeometry>
        </mxCell>
        <mxCell id="mt1AI8Zr7TfMjR9NXUJJ-8" value="Amazon Cognito" style="outlineConnect=0;dashed=0;verticalLabelPosition=bottom;verticalAlign=top;align=center;html=1;shape=mxgraph.aws3.cognito;fillColor=#AD688B;gradientColor=none;" vertex="1" parent="1">
          <mxGeometry x="440" y="820" width="76.5" height="93" as="geometry" />
        </mxCell>
        <mxCell id="mt1AI8Zr7TfMjR9NXUJJ-17" value="" style="edgeStyle=orthogonalEdgeStyle;rounded=0;orthogonalLoop=1;jettySize=auto;html=1;" edge="1" parent="1" source="mt1AI8Zr7TfMjR9NXUJJ-9" target="mt1AI8Zr7TfMjR9NXUJJ-10">
          <mxGeometry relative="1" as="geometry">
            <Array as="points">
              <mxPoint x="700" y="580" />
              <mxPoint x="700" y="580" />
            </Array>
          </mxGeometry>
        </mxCell>
        <mxCell id="mt1AI8Zr7TfMjR9NXUJJ-22" style="edgeStyle=orthogonalEdgeStyle;rounded=0;orthogonalLoop=1;jettySize=auto;html=1;endArrow=none;endFill=0;" edge="1" parent="1" source="mt1AI8Zr7TfMjR9NXUJJ-9">
          <mxGeometry relative="1" as="geometry">
            <mxPoint x="520" y="720" as="targetPoint" />
            <Array as="points">
              <mxPoint x="521" y="590" />
              <mxPoint x="521" y="720" />
            </Array>
          </mxGeometry>
        </mxCell>
        <mxCell id="mt1AI8Zr7TfMjR9NXUJJ-9" value="Amazon API Gateway" style="outlineConnect=0;dashed=0;verticalLabelPosition=bottom;verticalAlign=top;align=center;html=1;shape=mxgraph.aws3.api_gateway;fillColor=#D9A741;gradientColor=none;" vertex="1" parent="1">
          <mxGeometry x="563.75" y="535" width="76.5" height="93" as="geometry" />
        </mxCell>
        <mxCell id="mt1AI8Zr7TfMjR9NXUJJ-10" value="Amazon Translate" style="sketch=0;points=[[0,0,0],[0.25,0,0],[0.5,0,0],[0.75,0,0],[1,0,0],[0,1,0],[0.25,1,0],[0.5,1,0],[0.75,1,0],[1,1,0],[0,0.25,0],[0,0.5,0],[0,0.75,0],[1,0.25,0],[1,0.5,0],[1,0.75,0]];outlineConnect=0;fontColor=#232F3E;fillColor=#01A88D;strokeColor=#ffffff;dashed=0;verticalLabelPosition=bottom;verticalAlign=top;align=center;html=1;fontSize=12;fontStyle=0;aspect=fixed;shape=mxgraph.aws4.resourceIcon;resIcon=mxgraph.aws4.translate;" vertex="1" parent="1">
          <mxGeometry x="720" y="550" width="78" height="78" as="geometry" />
        </mxCell>
        <mxCell id="mt1AI8Zr7TfMjR9NXUJJ-19" style="edgeStyle=orthogonalEdgeStyle;rounded=0;orthogonalLoop=1;jettySize=auto;html=1;endArrow=none;endFill=0;" edge="1" parent="1" source="mt1AI8Zr7TfMjR9NXUJJ-11">
          <mxGeometry relative="1" as="geometry">
            <mxPoint x="420.0000000000002" y="720" as="targetPoint" />
            <Array as="points">
              <mxPoint x="589" y="790" />
              <mxPoint x="480" y="790" />
              <mxPoint x="480" y="720" />
            </Array>
          </mxGeometry>
        </mxCell>
        <mxCell id="mt1AI8Zr7TfMjR9NXUJJ-11" value="Amazon Lex" style="sketch=0;points=[[0,0,0],[0.25,0,0],[0.5,0,0],[0.75,0,0],[1,0,0],[0,1,0],[0.25,1,0],[0.5,1,0],[0.75,1,0],[1,1,0],[0,0.25,0],[0,0.5,0],[0,0.75,0],[1,0.25,0],[1,0.5,0],[1,0.75,0]];outlineConnect=0;fontColor=#232F3E;fillColor=#01A88D;strokeColor=#ffffff;dashed=0;verticalLabelPosition=bottom;verticalAlign=top;align=center;html=1;fontSize=12;fontStyle=0;aspect=fixed;shape=mxgraph.aws4.resourceIcon;resIcon=mxgraph.aws4.lex;" vertex="1" parent="1">
          <mxGeometry x="550" y="839.5" width="78" height="78" as="geometry" />
        </mxCell>
        <mxCell id="mt1AI8Zr7TfMjR9NXUJJ-16" style="edgeStyle=orthogonalEdgeStyle;rounded=0;orthogonalLoop=1;jettySize=auto;html=1;endArrow=none;endFill=0;" edge="1" parent="1" source="mt1AI8Zr7TfMjR9NXUJJ-13">
          <mxGeometry relative="1" as="geometry">
            <mxPoint x="361.75" y="720" as="targetPoint" />
          </mxGeometry>
        </mxCell>
        <mxCell id="mt1AI8Zr7TfMjR9NXUJJ-13" value="Amazon Rekognition" style="outlineConnect=0;dashed=0;verticalLabelPosition=bottom;verticalAlign=top;align=center;html=1;shape=mxgraph.aws3.rekognition;fillColor=#2E73B8;gradientColor=none;" vertex="1" parent="1">
          <mxGeometry x="323.5" y="820" width="76.5" height="93" as="geometry" />
        </mxCell>
        <mxCell id="mt1AI8Zr7TfMjR9NXUJJ-14" value="Amazon Lambda" style="outlineConnect=0;dashed=0;verticalLabelPosition=bottom;verticalAlign=top;align=center;html=1;shape=mxgraph.aws3.lambda_function;fillColor=#F58534;gradientColor=none;" vertex="1" parent="1">
          <mxGeometry x="571.25" y="660" width="69" height="72" as="geometry" />
        </mxCell>
        <mxCell id="mt1AI8Zr7TfMjR9NXUJJ-18" style="edgeStyle=orthogonalEdgeStyle;rounded=0;orthogonalLoop=1;jettySize=auto;html=1;" edge="1" parent="1" source="mt1AI8Zr7TfMjR9NXUJJ-14">
          <mxGeometry relative="1" as="geometry">
            <mxPoint x="720" y="580" as="targetPoint" />
            <Array as="points">
              <mxPoint x="680" y="696" />
              <mxPoint x="680" y="580" />
              <mxPoint x="720" y="580" />
            </Array>
          </mxGeometry>
        </mxCell>
        <mxCell id="mt1AI8Zr7TfMjR9NXUJJ-21" style="edgeStyle=orthogonalEdgeStyle;rounded=0;orthogonalLoop=1;jettySize=auto;html=1;endArrow=none;endFill=0;" edge="1" parent="1" target="mt1AI8Zr7TfMjR9NXUJJ-14">
          <mxGeometry relative="1" as="geometry">
            <mxPoint x="480" y="720" as="sourcePoint" />
            <Array as="points">
              <mxPoint x="480" y="721" />
              <mxPoint x="520" y="721" />
              <mxPoint x="520" y="696" />
            </Array>
          </mxGeometry>
        </mxCell>
        <mxCell id="mt1AI8Zr7TfMjR9NXUJJ-23" value="" style="outlineConnect=0;dashed=0;verticalLabelPosition=bottom;verticalAlign=top;align=center;html=1;shape=mxgraph.aws3.iam;fillColor=#759C3E;gradientColor=none;" vertex="1" parent="1">
          <mxGeometry x="310" y="807.5" width="20" height="32" as="geometry" />
        </mxCell>
        <mxCell id="mt1AI8Zr7TfMjR9NXUJJ-24" value="" style="outlineConnect=0;dashed=0;verticalLabelPosition=bottom;verticalAlign=top;align=center;html=1;shape=mxgraph.aws3.iam;fillColor=#759C3E;gradientColor=none;" vertex="1" parent="1">
          <mxGeometry x="430" y="807.5" width="20" height="32" as="geometry" />
        </mxCell>
        <mxCell id="mt1AI8Zr7TfMjR9NXUJJ-25" value="" style="outlineConnect=0;dashed=0;verticalLabelPosition=bottom;verticalAlign=top;align=center;html=1;shape=mxgraph.aws3.iam;fillColor=#759C3E;gradientColor=none;" vertex="1" parent="1">
          <mxGeometry x="543.75" y="807.5" width="20" height="32" as="geometry" />
        </mxCell>
        <mxCell id="mt1AI8Zr7TfMjR9NXUJJ-26" value="" style="outlineConnect=0;dashed=0;verticalLabelPosition=bottom;verticalAlign=top;align=center;html=1;shape=mxgraph.aws3.iam;fillColor=#759C3E;gradientColor=none;" vertex="1" parent="1">
          <mxGeometry x="551.25" y="658" width="20" height="32" as="geometry" />
        </mxCell>
        <mxCell id="mt1AI8Zr7TfMjR9NXUJJ-27" value="" style="outlineConnect=0;dashed=0;verticalLabelPosition=bottom;verticalAlign=top;align=center;html=1;shape=mxgraph.aws3.iam;fillColor=#759C3E;gradientColor=none;" vertex="1" parent="1">
          <mxGeometry x="551.25" y="518" width="20" height="32" as="geometry" />
        </mxCell>
        <mxCell id="mt1AI8Zr7TfMjR9NXUJJ-28" value="" style="outlineConnect=0;dashed=0;verticalLabelPosition=bottom;verticalAlign=top;align=center;html=1;shape=mxgraph.aws3.iam;fillColor=#759C3E;gradientColor=none;" vertex="1" parent="1">
          <mxGeometry x="720" y="518" width="20" height="32" as="geometry" />
        </mxCell>
        <mxCell id="mt1AI8Zr7TfMjR9NXUJJ-29" value="" style="rounded=1;arcSize=10;dashed=0;fillColor=none;gradientColor=none;strokeWidth=2;" vertex="1" parent="1">
          <mxGeometry x="-160" y="450" width="1010" height="620" as="geometry" />
        </mxCell>
        <mxCell id="P1qTom8UIpOYgn3hr2Sn-4" value="" style="dashed=0;html=1;shape=mxgraph.aws3.cloud;fillColor=#F58536;gradientColor=none;dashed=0;" parent="1" vertex="1">
          <mxGeometry x="-110" y="430" width="52" height="36" as="geometry" />
        </mxCell>
      </root>
    </mxGraphModel>
  </diagram>
</mxfile>
